PathFileType	4	(X/Y/Z)	\\147.46.242.158\로컬 디스크 (e)\MOCAP Data\Iguana Capture\iguana\Project 2\Capture day 7\Session 2\Take14.trc
DataRate	CameraRate	NumFrames	NumMarkers	Units	OrigDataRate	OrigDataStartFrame	OrigNumFrames
120.0	120.0	10	23	mm	120.0	24	5026
Frame#	Time	ana:head1			ana:head2			ana:bone1			ana:bone2			ana:bone3			ana:tail1			ana:tail2			ana:tail3			ana:tail4			ana:Rforefoot1			ana:Rforefoot2			ana:Rforefoot3			ana:Lforefoot1			ana:Lforefoot2			ana:Lforefoot3			ana:RhindLeg1			ana:RhindLeg2			ana:RhindLeg3			ana:RhindLeg4			ana:LhindLeg1			ana:LhindLeg2			ana:LhindLeg3			ana:LhindLeg4			
		X1	Y1	Z1	X2	Y2	Z2	X3	Y3	Z3	X4	Y4	Z4	X5	Y5	Z5	X6	Y6	Z6	X7	Y7	Z7	X8	Y8	Z8	X9	Y9	Z9	X10	Y10	Z10	X11	Y11	Z11	X12	Y12	Z12	X13	Y13	Z13	X14	Y14	Z14	X15	Y15	Z15	X16	Y16	Z16	X17	Y17	Z17	X18	Y18	Z18	X19	Y19	Z19	X20	Y20	Z20	X21	Y21	Z21	X22	Y22	Z22	X23	Y23	Z23	

2774	23.108	345.59265	169.61382	49.84664	334.90289	169.78375	50.67269	313.78720	173.53714	42.63949	289.57468	188.74867	35.48119	263.45303	208.21915	24.38175	240.00002	226.06081	15.26915	210.33247	247.25334	8.28521	171.82156	263.58771	7.03999	131.22726	274.71841	5.22559	310.27316	159.92349	27.72989	293.92838	159.23912	25.48117	299.44724	165.11507	9.06294	324.28235	179.40088	24.32656	328.90979	184.03377	12.54889	331.48352	169.68341	2.01701	258.81442	200.25017	18.85705	256.13138	180.30299	19.49692	242.63893	180.68370	1.98457	247.79199	172.36124	3.86097	267.10815	216.01707	17.86589	270.42184	234.39410	15.45951	260.34918	253.15540	7.16841	270.35864	256.84460	4.08434	
2775	23.117	346.59747	169.93607	49.71351	335.90768	169.97307	50.66311	314.65607	173.24876	42.78146	290.07300	187.98845	35.78910	263.93140	207.49979	24.75652	240.56168	225.53215	15.54389	211.10281	246.79054	8.31331	172.63690	263.25000	7.01442	132.07704	274.50571	5.21224	311.54675	159.40701	28.19756	295.55789	157.70506	26.40979	300.44836	162.73524	9.91892	324.75122	179.42082	24.45756	329.08774	184.10867	12.56276	331.52768	169.68481	2.02432	259.40033	199.53285	19.05994	256.12363	179.60864	19.47306	242.71838	180.60143	1.99306	247.78218	172.37605	3.87451	267.63126	215.26743	18.20539	270.85498	233.74275	15.87056	260.79730	252.50594	7.66389	270.50803	256.63840	4.33862	
2776	23.125	347.62070	170.18822	49.60360	336.94318	170.07396	50.60223	315.55762	172.96614	42.95176	290.59827	187.17900	36.11109	264.41101	206.71573	25.12909	241.19556	224.93022	15.81438	211.92122	246.23994	8.31536	173.50981	262.85889	6.97055	132.95102	274.25458	5.22970	312.89343	158.90054	28.66476	297.18152	156.14558	27.41894	301.74835	160.34848	10.56088	325.21524	179.43336	24.56107	329.26413	184.17734	12.59026	331.57529	169.67548	2.03650	260.04044	198.70627	19.27109	256.12976	178.88148	19.46141	242.74008	180.58693	2.07294	247.74324	172.38747	3.88900	268.14569	214.43518	18.53386	271.32373	233.03189	16.31528	261.30801	251.67825	8.13513	270.59775	256.35803	4.59245	
2777	23.133	348.64523	170.37488	49.52570	337.99445	170.07600	50.55534	316.45444	172.69186	43.11388	291.14502	186.32442	36.43726	264.99109	205.85681	25.46006	241.87378	224.28139	16.06748	212.75133	245.66316	8.33427	174.40929	262.47888	6.91627	133.87610	273.99026	5.25831	314.28149	158.39192	29.10595	298.90213	154.52548	28.39562	303.48633	158.01704	10.99172	325.68063	179.41347	24.64157	329.44946	184.24431	12.64690	331.61862	169.65175	2.04800	260.68631	197.82449	19.48605	256.09540	178.18509	19.44379	242.76035	180.55908	2.16717	247.66399	172.39868	3.92532	268.69131	213.50615	18.83496	271.84738	232.20868	16.75037	261.81067	250.76610	8.66597	270.62820	255.96591	4.83686	
2778	23.142	349.64258	170.44455	49.46617	339.03461	170.08261	50.54634	317.34882	172.34798	43.30689	291.70764	185.42644	36.75467	265.55353	204.93037	25.75593	242.59680	223.57776	16.29126	213.60643	245.04289	8.33659	175.36357	262.11105	6.86525	134.86374	273.74356	5.27052	315.71500	157.91173	29.50520	300.76205	152.76338	29.24294	305.80051	155.67657	11.36499	326.14288	179.36331	24.70048	329.56018	184.28488	12.64554	331.67160	169.62015	2.07133	261.27621	196.88551	19.68156	256.03378	177.47433	19.40920	242.76488	180.53995	2.25063	247.58966	172.39267	3.93492	269.25937	212.54553	19.18677	272.43045	231.27611	17.19352	262.27292	249.71034	9.19811	270.62952	255.47301	5.08831	
2779	23.150	350.64017	170.48466	49.40630	340.09323	170.10634	50.58229	318.25104	171.96445	43.50903	292.29520	184.49292	37.06737	266.07901	203.98549	26.03741	243.31949	222.88652	16.51862	214.44963	244.48073	8.37822	176.37105	261.72101	6.85780	135.89943	273.54834	5.29772	317.08701	157.59401	29.81200	302.81348	150.99733	29.88414	308.65561	153.30318	11.71442	326.61197	179.28662	24.76723	329.62381	184.30699	12.61256	331.73026	169.58583	2.09949	261.82324	195.90010	19.89106	255.93117	176.75757	19.35991	242.76595	180.52527	2.31096	247.53073	172.37271	3.93393	269.82025	211.57246	19.56062	273.11719	230.22229	17.66618	262.68008	248.51566	9.79027	270.66519	254.80225	5.38890	
2780	23.158	351.62451	170.50864	49.35181	341.10956	170.16058	50.62987	319.13602	171.52313	43.70911	292.87653	183.49109	37.35523	266.61127	202.98547	26.33292	244.04106	222.21463	16.76604	215.30975	243.93472	8.42347	177.39104	261.41730	6.85003	136.96114	273.41251	5.32147	318.41367	157.32941	30.05098	305.02167	149.20763	30.29342	311.92221	151.00995	12.12128	327.07690	179.16544	24.84482	329.64294	184.27422	12.55629	331.72015	169.54430	2.05332	262.29745	194.89311	20.11207	255.77596	176.04259	19.27804	242.77988	180.54723	2.32828	247.51523	172.33345	3.87673	270.42255	210.55627	19.99710	273.91022	229.05859	18.19342	263.09131	247.22136	10.43862	270.71637	253.88779	5.69299	
2781	23.167	352.59726	170.50763	49.27644	342.07986	170.29907	50.68906	320.01590	171.08650	43.85497	293.46027	182.46904	37.61953	267.13812	201.93404	26.63729	244.77559	221.48392	17.04630	216.18646	243.38094	8.47599	178.44643	261.11066	6.84368	138.07251	273.32480	5.33609	319.66794	157.07890	30.15801	307.32614	147.53955	30.44619	315.52722	148.88583	12.70140	327.56055	179.03001	24.91691	329.63074	184.23071	12.47930	331.67667	169.53972	2.02218	262.71231	193.95560	20.31036	255.60875	175.32556	19.15155	242.87709	180.55675	2.26087	247.62019	172.21545	3.74452	271.04736	209.48830	20.44526	274.80646	227.84669	18.81403	263.51205	245.64684	11.01036	270.85065	252.64285	6.02196	
2782	23.175	353.56424	170.50848	49.19027	343.03281	170.39311	50.66988	320.85568	170.62230	44.02143	294.05612	181.45161	37.87556	267.68280	200.87112	26.92374	245.51874	220.75230	17.32430	217.06053	242.81664	8.52817	179.49657	260.77365	6.85878	139.19983	273.26181	5.37206	320.97202	156.84178	30.22797	309.69058	146.05835	30.40108	319.24228	146.99776	13.39462	328.05109	178.84225	24.94253	329.65158	184.18372	12.43309	331.55960	169.63742	1.98091	263.13031	192.96825	20.50585	255.43739	174.61847	19.00977	243.03700	180.55688	2.14089	247.82036	172.05203	3.54617	271.72528	208.39359	20.88689	275.88086	226.55383	19.47902	263.98209	243.72754	11.46119	271.07098	251.05595	6.36101	
2783	23.183	354.54019	170.51413	49.08743	343.97247	170.50465	50.64504	321.71790	170.24165	44.10812	294.67273	180.48000	38.09529	268.27103	199.81122	27.20937	246.28511	219.99989	17.58368	217.99045	242.19894	8.57785	180.57774	260.41711	6.87126	140.36507	273.20215	5.37994	322.29675	156.48294	30.29429	312.08337	144.74117	30.27225	322.99731	145.36502	14.17238	328.57239	178.64520	24.91675	329.72083	184.14708	12.43666	331.40369	169.81117	1.95719	263.53436	192.03542	20.67361	255.27388	173.95166	18.83953	243.25609	180.53941	1.98228	248.07625	171.85367	3.32594	272.45200	207.28181	21.28362	277.17966	225.13986	20.16179	264.57239	241.50172	11.70234	271.45605	249.10873	6.69204	
